<svg width="128" height="128" viewBox="0 0 128 128" xmlns="http://www.w3.org/2000/svg" role="img" aria-labelledby="title">
  <title>Icône chapiteau de cirque</title>
  <defs>
    <linearGradient id="roofShade" x1="0" x2="0" y1="0" y2="1">
      <stop offset="0" stop-color="#d91e18"/>
      <stop offset="1" stop-color="#b51612"/>
    </linearGradient>
  </defs>

  <!-- sol -->
  <rect x="8" y="98" width="112" height="6" rx="3" fill="#2e2e2e" opacity=".15"/>

  <!-- base du chapiteau -->
  <g stroke="#7a1110" stroke-width="2" stroke-linejoin="round">
    <!-- mur gauche -->
    <path d="M20 98 L36 50 L64 58 L64 98 Z" fill="#ffffff"/>
    <!-- mur droit -->
    <path d="M108 98 L92 50 L64 58 L64 98 Z" fill="#ffffff"/>

    <!-- bandes rouges -->
    <path d="M28 98 L41 55 L50 57 L40 98 Z" fill="#e3312d"/>
    <path d="M44 98 L54 60 L64 62 L64 98 Z" fill="#e3312d"/>
    <path d="M100 98 L87 55 L78 57 L88 98 Z" fill="#e3312d"/>
    <path d="M84 98 L74 60 L64 62 L64 98 Z" fill="#e3312d"/>

    <!-- rideau central -->
    <path d="M64 58 C58 56, 50 64, 50 72 V98 H78 V72 C78 64, 70 56, 64 58 Z" fill="#ffd8d6" stroke="#c46664"/>
  </g>

  <!-- toit -->
  <g stroke="#7a1110" stroke-width="2" stroke-linejoin="round">
    <path d="M36 50 L64 26 L92 50 Z" fill="url(#roofShade)"/>
    <!-- liseré du toit -->
    <path d="M36 50 Q64 42 92 50" fill="none"/>
  </g>

  <!-- petit fronton sous le toit -->
  <path d="M48 50 L64 44 L80 50 Z" fill="#fff2bf" stroke="#c7a43a" stroke-width="2" stroke-linejoin="round"/>

  <!-- mât + drapeau -->
  <g>
    <path d="M64 14 V44" stroke="#7a1110" stroke-width="3" stroke-linecap="round"/>
    <path d="M64 16 L64 30 L86 24 Z" fill="#ffd34d" stroke="#c7a43a" stroke-width="2" stroke-linejoin="round"/>
  </g>

  <!-- base/estrade -->
  <rect x="18" y="98" width="92" height="8" rx="2" fill="#b51612" stroke="#7a1110" stroke-width="2"/>
</svg>
